# xmcd
# Copyright (C) 1995-1998 Ti Kan
#
# Track frame offsets:
#       150
#       27327
#       58509
#       72945
#       102036
#
# Disc length: 1588 seconds
#
# Revision: 0
# Processed by: cddbd v1.5.2PL0 Copyright (c) Steve Scherf et al.
# Submitted via: CD-Import v1.0
#
DISCID=3a063205
DTITLE=Bangkok Pisspots - Enemy Demo Ep
DYEAR=09
DGENRE=
TTITLE0=She Is
TTITLE1=The Reality
TTITLE2=Never Ending Story
TTITLE3=Enemy
TTITLE4=Kill - Push
EXTD=
EXTT0=
EXTT1=
EXTT2=
EXTT3=
EXTT4=
PLAYORDER=
